<?xml version="1.0" encoding="utf-8"?>
<!-- Generator: Adobe Illustrator 17.0.0, SVG Export Plug-In . SVG Version: 6.00 Build 0)  -->
<!DOCTYPE svg PUBLIC "-//W3C//DTD SVG 1.1//EN" "http://www.w3.org/Graphics/SVG/1.1/DTD/svg11.dtd">
<svg version="1.1" id="Layer_1" xmlns="http://www.w3.org/2000/svg" xmlns:xlink="http://www.w3.org/1999/xlink" x="0px" y="0px"
	 width="100px" height="100px" viewBox="0 0 100 100" enable-background="new 0 0 100 100" xml:space="preserve">
<g>
	<g>
		<g>
			<path fill="#EE1356" d="M42,14.325c0.02,14.865-0.016,29.729-0.017,44.594c0,5.905,0.15,11.819,0.094,17.723
				c-0.028,2.956-0.587,5.75-3.997,6.186c-3.798,0.486-7.751-1.89-9.205-5.371c-2.353-5.631,16.17-11.981,19.714-13.336
				c9.348-3.575,19.758-4.879,28.019-10.614c3.154-2.19,0.159-7.393-3.028-5.181c-5.187,3.601-10.928,5.021-17.055,6.805
				c-6.037,1.758-11.924,3.998-17.674,6.537c-9.264,4.091-22.299,12.395-12.186,22.987c4.175,4.373,12.159,5.669,17.243,2.313
				c4.905-3.238,4.171-10.423,4.092-15.459c-0.297-19.053,0.026-38.129,0-57.184C47.995,10.456,41.995,10.455,42,14.325L42,14.325z"
				/>
		</g>
	</g>
	<g>
		<g>
			<path fill="#EE1356" d="M62,38.673c0,10.784,0,21.569,0,32.353c0,3.869,6,3.869,6,0c0-10.784,0-21.569,0-32.353
				C68,34.804,62,34.804,62,38.673L62,38.673z"/>
		</g>
	</g>
</g>
<g>
</g>
<g>
</g>
<g>
</g>
<g>
</g>
<g>
</g>
<g>
</g>
<g>
</g>
<g>
</g>
<g>
</g>
<g>
</g>
<g>
</g>
<g>
</g>
<g>
</g>
<g>
</g>
<g>
</g>
</svg>
